<?xml version="1.0" encoding="utf-8"?>
<!-- Generator: Adobe Illustrator 19.0.0, SVG Export Plug-In . SVG Version: 6.00 Build 0)  -->
<svg version="1.1" xmlns="http://www.w3.org/2000/svg" xmlns:xlink="http://www.w3.org/1999/xlink" x="0px" y="0px"
	 viewBox="0 0 64 64" style="enable-background:new 0 0 64 64;" xml:space="preserve">
<style type="text/css">
	.st0{display:none;}
	.st1{display:inline;}
	.st2{display:inline;fill:none;stroke-width:2;stroke-miterlimit:10;}
	.st3{display:inline;}
	.st4{fill:none;stroke:var;stroke-width:2;stroke-miterlimit:10;}
	.st5{}
	.st6{font-family:'Montserrat-Bold';}
	.st7{font-size:7px;}
	.st8{display:inline;}
	.st9{display:inline;}
	.st10{display:inline;}
</style>
<g id="bg" class="st0">
	<rect id="XMLID_119_" x="-218" y="-268.2" class="st1" width="500" height="600.3"/>
</g>
<g id="guideline" class="st0">
</g>
<g id="icons">
	<g id="XMLID_13_" class="st0">
		<path id="XMLID_8_" class="st2" d="M29.3,54.5V53l3.1-3.3l10.3-11.8l0,0c-1.4-0.1-2.7,0.2-3.9,0.9l-7.1,4.4
			c-0.1,0.2-4.7-0.5-4.8-0.6l-2.5-4.7c-0.2-0.4-0.6-0.5-1.1-0.5l0,0c-0.6,0-1.1,0.2-1.1,0.8L22,47.2c0,1.2,0.4,2.3,1.1,3.2l0.1,0.2
			l-1,3.1v0.9"/>
		<path id="XMLID_7_" class="st2" d="M32.7,42.1L32,37.6h0.7c0.9,0,1.6,0.5,1.9,1.3l1,2.3"/>
		<path id="XMLID_4_" class="st2" d="M53.5,36.8h-43c-0.1,0-0.3-0.1-0.3-0.3V34c0-0.1,0.1-0.3,0.3-0.3h43c0.1,0,0.3,0.1,0.3,0.3v2.6
			C53.7,36.7,53.6,36.8,53.5,36.8z"/>
		<path id="XMLID_16_" class="st2" d="M14.2,33.7c0-9.9,8-17.8,17.8-17.8s17.8,8,17.8,17.8"/>
		<circle id="XMLID_9_" class="st2" cx="32" cy="11.6" r="2.1"/>
	</g>
	<g id="XMLID_29_" class="st0">
		<path id="XMLID_84_" class="st2" d="M54.7,26.6c0-5-4-9-9-9c-1,0-1.9,0.2-2.8,0.5c-2.3-3.6-6.4-6-11-6c-4.6,0-8.6,2.4-11,6
			c-0.9-0.3-1.8-0.5-2.7-0.5c-5,0-9,4-9,9c0,6.2,3.6,8.6,3.6,8.6v16.5c0,0.1,0.1,0.1,0.1,0.1h36.1c0.1,0,0.1-0.1,0.1-0.1V35.3
			C49.2,35.3,54.7,33,54.7,26.6z"/>
		<line id="XMLID_76_" class="st2" x1="12.9" y1="35.3" x2="28.6" y2="35.3"/>
		<line id="XMLID_53_" class="st2" x1="12.9" y1="41.8" x2="49.2" y2="41.8"/>
		<path id="XMLID_15_" class="st2" d="M21.5,18.3c4.9,0.6,8.4,5,7.9,9.9"/>
		<path id="XMLID_57_" class="st2" d="M44.9,17.7c-2.2,0.3-4.2,1.3-5.6,2.9"/>
		<line id="XMLID_21_" class="st2" x1="23.6" y1="47.1" x2="26.1" y2="47.1"/>
		<line id="XMLID_17_" class="st2" x1="28" y1="47.1" x2="30.5" y2="47.1"/>
		<line id="XMLID_25_" class="st2" x1="32.4" y1="47.1" x2="34.9" y2="47.1"/>
		<line id="XMLID_52_" class="st2" x1="36.8" y1="47.1" x2="39.3" y2="47.1"/>
	</g>
	<g id="XMLID_54_" class="st0">
		<path id="XMLID_51_" class="st2" d="M37.3,13.9c2.7-1.2,6.1-0.5,6.1-0.5s0.6,3.3-0.5,6"/>
		<path id="XMLID_64_" class="st2" d="M26.6,13.9c-2.7-1.2-6.1-0.5-6.1-0.5s-0.6,3.3,0.5,6"/>
		<path id="XMLID_114_" class="st2" d="M27.4,18.1c0-3.7,4.4-6.7,4.4-6.7s4.4,3,4.4,6.7"/>
		<circle id="XMLID_113_" class="st2" cx="32.4" cy="49.1" r="3.5"/>
		<circle id="XMLID_108_" class="st2" cx="28.5" cy="42.9" r="3.5"/>
		<circle id="XMLID_107_" class="st2" cx="36.1" cy="42.9" r="3.5"/>
		<circle id="XMLID_102_" class="st2" cx="25.3" cy="36.4" r="3.5"/>
		<circle id="XMLID_99_" class="st2" cx="39.1" cy="36.4" r="3.5"/>
		<circle id="XMLID_96_" class="st2" cx="32.3" cy="36.4" r="3.5"/>
		<circle id="XMLID_93_" class="st2" cx="25" cy="22.9" r="3.5"/>
		<circle id="XMLID_90_" class="st2" cx="39.1" cy="22.9" r="3.5"/>
		<circle id="XMLID_87_" class="st2" cx="31.9" cy="22.9" r="3.5"/>
		<circle id="XMLID_80_" class="st2" cx="21.1" cy="29.6" r="3.5"/>
		<circle id="XMLID_72_" class="st2" cx="42.9" cy="29.6" r="3.5"/>
		<circle id="XMLID_65_" class="st2" cx="35.7" cy="29.6" r="3.5"/>
		<circle id="XMLID_59_" class="st2" cx="28.4" cy="29.6" r="3.5"/>
	</g>
	<g id="XMLID_75_" class="st0">
		<path id="XMLID_66_" class="st2" d="M38.7,54.6h8.1c0.1,0,0.3-0.1,0.3-0.3V28.9c0-2.4-2-4.4-4.4-4.4l0,0V9.4h-5.2v15.1l0,0
			c-2.4,0-4.4,2-4.4,4.4l0.1,25.6c0,0.1,0.1,0.2,0.2,0.2H38.7z"/>
		<line id="XMLID_503_" class="st2" x1="35.1" y1="13.3" x2="45.1" y2="13.3"/>
		<line id="XMLID_502_" class="st2" x1="35.1" y1="16.6" x2="45.1" y2="16.6"/>
		<polyline id="XMLID_512_" class="st2" points="47.1,33.6 39.7,33.6 39.7,47 47.1,47 		"/>
		<line id="XMLID_514_" class="st2" x1="43" y1="37.2" x2="46.4" y2="37.2"/>
		<line id="XMLID_504_" class="st2" x1="43" y1="40.2" x2="46.4" y2="40.2"/>
		<line id="XMLID_515_" class="st2" x1="43" y1="43.1" x2="46.4" y2="43.1"/>
		<g id="XMLID_74_" class="st3">
			<line id="XMLID_330_" class="st4" x1="23.3" y1="43.1" x2="23.3" y2="54.6"/>
			<line id="XMLID_329_" class="st4" x1="18.3" y1="54.6" x2="28" y2="54.6"/>
			<path id="XMLID_71_" class="st4" d="M23,43.1L23,43.1c-3.6,0-6.4-3-6.1-6.6l0.6-9.9h11l0.6,9.9C29.4,40.1,26.6,43.1,23,43.1z"/>
			<line id="XMLID_83_" class="st4" x1="16.9" y1="34.9" x2="29.1" y2="34.9"/>
		</g>
	</g>
	<g id="XMLID_103_" class="st0">
		<g id="XMLID_95_" class="st3">
			<path id="XMLID_120_" class="st4" d="M11.8,45.3c0-6.1,4.9-11,11-11s11,4.9,11,11"/>
			<path id="XMLID_88_" class="st4" d="M15.3,45.3c0-4.1,3.3-7.5,7.5-7.5s7.5,3.3,7.5,7.5"/>
			<path id="XMLID_89_" class="st4" d="M18.9,45.3c0-2.1,1.7-3.9,3.9-3.9s3.9,1.7,3.9,3.9"/>
		</g>
		<g id="XMLID_97_" class="st3">
			<path id="XMLID_116_" class="st4" d="M32.2,39.6c1.9-3.1,5.4-5.2,9.4-5.2c6.1,0,11,4.9,11,11"/>
			<path id="XMLID_100_" class="st4" d="M34.1,45.3c0-4.1,3.3-7.5,7.5-7.5c4.1,0,7.5,3.3,7.5,7.5"/>
			<path id="XMLID_98_" class="st4" d="M37.6,45.3c0-2.1,1.7-3.9,3.9-3.9c2.1,0,3.9,1.7,3.9,3.9"/>
		</g>
		<path id="XMLID_94_" class="st2" d="M24.8,14.1c0,1.2-1,1.2-1,2.4c0,1.2,1,1.2,1,2.4c0,1.2-1,1.2-1,2.4s1,1.2,1,2.4"/>
		<path id="XMLID_92_" class="st2" d="M38.6,14.9c0,1.2-1,1.2-1,2.4c0,1.2,1,1.2,1,2.4c0,1.2-1,1.2-1,2.4s1,1.2,1,2.4"/>
		<path id="XMLID_91_" class="st2" d="M31.7,10.1c0,1.2-1,1.2-1,2.4c0,1.2,1,1.2,1,2.4c0,1.2-1,1.2-1,2.4s1,1.2,1,2.4"/>
		<path id="XMLID_101_" class="st2" d="M54.2,45.7H9.8c-0.1,0-0.2,0.1-0.2,0.2v2.5c0,0.1,0.1,0.2,0.2,0.2h2.3l0,0
			c0.6,3.1,3.3,5.3,6.5,5.3h26.9c3.1,0,5.8-2.2,6.5-5.3l0,0h2.3c0.1,0,0.2-0.1,0.2-0.2v-2.5C54.4,45.8,54.3,45.7,54.2,45.7z"/>
		<g id="XMLID_106_" class="st3">
			<path id="XMLID_115_" class="st4" d="M22.3,34.1c0.5-1.6,1.5-3.1,2.7-4.3c2-2,4.7-3.2,7.8-3.2c3,0,5.8,1.2,7.8,3.2
				c1.2,1.2,2.2,2.8,2.7,4.5"/>
			<path id="XMLID_112_" class="st4" d="M25.8,34.8c0.4-0.9,0.9-1.7,1.6-2.4c1.3-1.3,3.2-2.2,5.3-2.2c2.1,0,3.9,0.8,5.3,2.2
				c0.7,0.7,1.2,1.4,1.6,2.3"/>
			<path id="XMLID_110_" class="st4" d="M29.1,36.3c0.2-0.5,0.5-1,0.9-1.4c0.7-0.7,1.7-1.1,2.8-1.1c1.1,0,2,0.4,2.8,1.1
				c0.3,0.3,0.5,0.6,0.7,0.9"/>
		</g>
	</g>
	<g id="XMLID_123_" class="st0">
		<g id="XMLID_104_" class="st3">
			<path id="XMLID_127_" class="st4" d="M41,31.4C40.5,25.6,35.5,21,29.6,21C23.2,21,18,26.2,18,32.5c0,6.4,5.2,11.5,11.5,11.5
				c1.2,0,2.4-0.2,3.6-0.6c1.4,2.1,3.8,3.5,6.5,3.5c4.3,0,7.9-3.5,7.9-7.9C47.5,35.2,44.7,32,41,31.4z"/>
			<path id="XMLID_126_" class="st4" d="M40,44.4c2.9-0.9,5-3.6,5-6.8"/>
			<circle id="XMLID_125_" class="st4" cx="28.3" cy="32.2" r="6"/>
			<path id="XMLID_109_" class="st4" d="M28.3,28.5c1,0,2,0.4,2.6,1.1c0.7,0.7,1.1,1.6,1.1,2.6"/>
		</g>
		<circle id="XMLID_118_" class="st2" cx="32" cy="32" r="22.5"/>
		<path id="XMLID_124_" class="st2" d="M26.3,16.4c1.8-0.7,3.7-1,5.7-1c4.6,0,8.8,1.9,11.8,4.9c3,3,4.9,7.2,4.9,11.8"/>
		<path id="XMLID_121_" class="st2" d="M23.1,17.9c0.6-0.4,1.3-0.7,1.9-1"/>
		<path id="XMLID_122_" class="st2" d="M20.2,20.2c0.6-0.6,1.3-1.2,2.1-1.7"/>
	</g>
	<g id="XMLID_44_" class="st0">
		<g id="XMLID_36_" class="st3">
			<g id="XMLID_49_">
				<g id="XMLID_67_">
					<path id="XMLID_70_" class="st4" d="M23.8,16.1l6.3,6.3c0.6,0.6,0.6,1.6,0,2.2l-3.9,3.9c-0.6,0.6-1.6,0.6-2.2,0l-6.3-6.3"/>
					<line id="XMLID_69_" class="st4" x1="20.2" y1="20.4" x2="24.6" y2="24.8"/>
					<line id="XMLID_68_" class="st4" x1="22.1" y1="18.5" x2="26.5" y2="22.9"/>
				</g>
				<line id="XMLID_56_" class="st4" x1="29.4" y1="29.7" x2="28.2" y2="28.5"/>
				<path id="XMLID_55_" class="st4" d="M35.9,32.4l9.9,9.9c0.1,0.1,0.1,0.2,0,0.2l-1.7,1.7c-0.1,0.1-0.2,0.1-0.2,0l-9.1-9.2"/>
				<line id="XMLID_50_" class="st4" x1="30.1" y1="26.6" x2="31.1" y2="27.7"/>
			</g>
			<g id="XMLID_40_">
				<path id="XMLID_48_" class="st4" d="M29,32l15.5-15.5c0,0,0.1,0,0.1,0L44.1,20c-0.3,1.8-1.1,3.5-2.4,4.8l-7.8,7.8l-1.5-0.4
					l-1.6,1.6"/>
				<path id="XMLID_82_" class="st4" d="M28,36.7l-7.1,7.1c-0.1,0.1-0.2,0.1-0.3,0L19,42.3c-0.1-0.1-0.1-0.2,0-0.3l9.3-9.3"/>
			</g>
		</g>
		<path id="XMLID_77_" class="st2" d="M31.9,37.9v13.7h-0.6l0,0c-1.3-1.3-3.1-2-4.9-2H11.3c-0.1,0-0.1-0.1-0.1-0.1V10.4
			c0-0.1,0.1-0.1,0.1-0.1h19.6c0.6,0,1,0.5,1,1v7.6"/>
		<path id="XMLID_78_" class="st2" d="M32.1,37.9v13.7h0.6l0,0c1.3-1.3,3.1-2,4.9-2h15.1c0.1,0,0.1-0.1,0.1-0.1V10.4
			c0-0.1-0.1-0.1-0.1-0.1H33.1c-0.6,0-1,0.5-1,1v7.6"/>
		<path id="XMLID_85_" class="st2" d="M52.9,51.7v1.8c0,0.1-0.1,0.2-0.2,0.2H11.3c-0.1,0-0.2-0.1-0.2-0.2v-1.8"/>
	</g>
	<g id="XMLID_151_" class="st0">
		<path id="XMLID_133_" class="st2" d="M39.9,46.2v4.9c0,1.8-1.5,3.3-3.3,3.3H17c-1.8,0-3.3-1.5-3.3-3.3v-32c0-0.1,0.1-0.2,0.2-0.2
			h5.6l0,7.3c0,1.2,1,2.2,2.2,2.2l0,0c1.2,0,2.2-1,2.2-2.2v-7.3h15.8c0.1,0,0.2,0.1,0.2,0.2v4.1"/>
		<line id="XMLID_73_" class="st2" x1="39.9" y1="31.7" x2="39.9" y2="38.6"/>
		<line id="XMLID_111_" class="st2" x1="14" y1="49" x2="40.2" y2="49"/>
		<path id="XMLID_129_" class="st2" d="M37.3,25.4H50c0.1,0,0.2,0.1,0.2,0.2v12.1c0,3.8-3.1,6.8-6.8,6.8h-6.2"/>
		<path id="XMLID_105_" class="st2" d="M37.3,29.7h8.8v7.6c0,1.6-1.3,3-3,3h-5.9"/>
		<path id="XMLID_130_" class="st2" d="M39.2,18.9c0.6-0.7,0.9-1.7,0.7-2.7c-0.2-0.9-1-1.7-1.9-2.1c-0.9-0.3-1.8-0.2-2.5,0.2
			c0,0,0,0,0,0c-0.6-0.8-1.6-1.3-2.7-1.3c-0.3,0-0.5,0-0.8,0.1c-0.3-2-2.1-3.5-4.1-3.5c-2.1,0-3.8,1.6-4.1,3.6c0,0-0.1,0.1-0.1,0
			c-0.7-0.8-1.7-1.3-2.8-1.3c-2.1,0-3.7,1.7-3.7,3.7c0,0.1,0,0.2,0,0.4c0,0,0,0,0,0c-1.5,0-2.7,1.2-2.7,2.7"/>
		<line id="XMLID_135_" class="st2" x1="26.8" y1="23.9" x2="26.8" y2="44.6"/>
		<line id="XMLID_150_" class="st2" x1="20.8" y1="30.9" x2="20.8" y2="44.6"/>
		<line id="XMLID_131_" class="st2" x1="32.8" y1="23.9" x2="32.8" y2="44.6"/>
	</g>
	<g id="XMLID_158_" class="st0">
		<path id="XMLID_171_" class="st2" d="M42.4,33.4h3.7c0.6,0,1.3-0.4,1.6-1l2-3.4h6.9c0.1,0,0.2,0.1,0.2,0.3l-2,18.2
			c-0.1,0.6-0.6,1.1-1.2,1.1H36.8"/>
		<path id="XMLID_156_" class="st2" d="M30.4,19.4v-3.8c0-0.1,0.1-0.2,0.2-0.2h4.8c0.1,0,0.2,0.1,0.2,0.2v6.9"/>
		<path id="XMLID_154_" class="st2" d="M37,22.5v-6.9c0-0.1,0.1-0.2,0.2-0.2H42c0.1,0,0.2,0.1,0.2,0.2v15.2"/>
		<path id="XMLID_157_" class="st2" d="M43.5,30.8V15.6c0-0.1,0.1-0.2,0.2-0.2h4.8c0.1,0,0.2,0.1,0.2,0.2v12.2"/>
		<path id="XMLID_159_" class="st2" d="M50.1,27.9V15.6c0-0.1,0.1-0.2,0.2-0.2h4.8c0.1,0,0.2,0.1,0.2,0.2v11.3"/>
		<g id="XMLID_170_" class="st3">
			<path id="XMLID_160_" class="st4" d="M36.2,31.1H12v-1.9c0-4.4,3.6-8,8-8h8.1c4.4,0,8,3.6,8,8V31.1z"/>
			<path id="XMLID_161_" class="st4" d="M29.6,48.6H18.7c-3.6,0-6.6-3-6.6-6.6v-0.4h24.1V42C36.2,45.7,33.2,48.6,29.6,48.6z"/>
			<path id="XMLID_162_" class="st4" d="M37.9,38.7H9.5c-1.3,0-2.3-1.1-2.3-2.3v-0.3c0-1.3,1.1-2.3,2.3-2.3h28.4
				c1.3,0,2.3,1.1,2.3,2.3v0.3C40.3,37.7,39.2,38.7,37.9,38.7z"/>
			<line id="XMLID_164_" class="st4" x1="19.2" y1="24.2" x2="21" y2="24.2"/>
			<line id="XMLID_163_" class="st4" x1="23.4" y1="24.2" x2="25.2" y2="24.2"/>
			<line id="XMLID_165_" class="st4" x1="27.7" y1="24.2" x2="29.5" y2="24.2"/>
			<line id="XMLID_168_" class="st4" x1="21.3" y1="27.4" x2="23.1" y2="27.4"/>
			<line id="XMLID_167_" class="st4" x1="25.6" y1="27.4" x2="27.3" y2="27.4"/>
		</g>
	</g>
	<g id="XMLID_189_" class="st0">
		<g id="XMLID_184_" class="st3">
			<path id="XMLID_166_" class="st4" d="M42.6,24.9c0.3-1,0.8-1.9,1.6-2.7c2.6-2.6,7.4-2.1,7.4-2.1s0.5,4.8-2.1,7.4
				c-0.8,0.8-1.7,1.3-2.7,1.6"/>
			<circle id="XMLID_193_" class="st4" cx="34.8" cy="38.5" r="13.6"/>
			<path id="XMLID_191_" class="st4" d="M34.6,35.8l-3.1-7.2c-0.1-0.3,0-0.8,0.4-0.9c1.6-0.5,4.3-0.5,5.8,0c0.4,0.1,0.5,0.5,0.4,0.9
				l-3,7.2C35,36.1,34.8,36.1,34.6,35.8z"/>
			<path id="XMLID_169_" class="st4" d="M37.1,37l4.7-6.3c0.2-0.3,0.7-0.4,1-0.2c1.3,1.1,2.6,3.4,2.9,5c0.1,0.4-0.2,0.7-0.6,0.8
				l-7.7,1.1C37,37.5,36.9,37.2,37.1,37z"/>
			<path id="XMLID_174_" class="st4" d="M37.3,39.7l7.8,0.9c0.4,0,0.7,0.4,0.6,0.8c-0.3,1.6-1.7,4-2.9,5.1c-0.3,0.3-0.7,0.2-1-0.1
				L37,40.1C36.8,39.8,36.9,39.6,37.3,39.7z"/>
			<path id="XMLID_176_" class="st4" d="M35.1,41.2l3.1,7.2c0.1,0.3,0,0.8-0.3,0.9c-1.6,0.6-4.3,0.5-5.8,0c-0.4-0.1-0.5-0.5-0.4-0.9
				l2.9-7.2C34.7,40.9,34.9,40.9,35.1,41.2z"/>
			<path id="XMLID_178_" class="st4" d="M32.6,40l-4.7,6.3c-0.2,0.3-0.7,0.4-1,0.2c-1.3-1.1-2.6-3.4-3-5c-0.1-0.4,0.2-0.7,0.6-0.8
				l7.7-1.1C32.7,39.5,32.8,39.7,32.6,40z"/>
			<path id="XMLID_180_" class="st4" d="M32.4,37.3l-7.8-0.9c-0.4,0-0.7-0.4-0.6-0.8c0.3-1.6,1.7-4,2.9-5.1c0.3-0.3,0.7-0.2,1,0.1
				l4.8,6.2C32.9,37.2,32.8,37.4,32.4,37.3z"/>
		</g>
		<path id="XMLID_188_" class="st2" d="M25.2,51.8H12.5c-0.1,0-0.2-0.1-0.2-0.2V12.1c0-0.1,0.1-0.2,0.2-0.2H32
			c0.1,0,0.2,0.1,0.2,0.2v10.4"/>
		<line id="XMLID_186_" class="st2" x1="16.5" y1="26.5" x2="16.5" y2="28.1"/>
		<line id="XMLID_190_" class="st2" x1="16.5" y1="30.9" x2="16.5" y2="32.6"/>
		<line id="XMLID_198_" class="st2" x1="26.5" y1="23.4" x2="26.5" y2="25.1"/>
		<line id="XMLID_194_" class="st2" x1="16.5" y1="35.4" x2="16.5" y2="37.1"/>
		<line id="XMLID_195_" class="st2" x1="16.5" y1="39.9" x2="16.5" y2="41.5"/>
		<line id="XMLID_196_" class="st2" x1="16.5" y1="44.4" x2="16.5" y2="46"/>
		<line id="XMLID_201_" class="st2" x1="21.5" y1="21.4" x2="21.5" y2="23.1"/>
		<line id="XMLID_200_" class="st2" x1="21.5" y1="26.9" x2="21.5" y2="28.5"/>
		<line id="XMLID_197_" class="st2" x1="12.3" y1="18.5" x2="32.2" y2="18.5"/>
	</g>
	<g id="XMLID_203_" class="st0">
		<path id="XMLID_185_" class="st2" d="M45.1,27.8c-1.5,1.9-4.2,2.9-5.7,1.7c-1.5-1.2-1.3-4,0.2-6c1.5-1.9,6.3-2.4,6.3-2.4
			S46.6,25.9,45.1,27.8z"/>
		<path id="XMLID_202_" class="st2" d="M32.7,31.1c1.9,0,4.3,1.2,6.8,1.2c3.6,0,6.9-2.7,9.2-0.2c2,2.2,3.2,5.1,3.2,8.4
			c0,3.5-3.6,11-6,13.2c-2.2,2.1-4.6,0-6.1,0c-1.8,0-3.8,2.1-6,0"/>
		<g id="XMLID_182_" class="st3">
			<path id="XMLID_214_" class="st4" d="M16.9,16.5c1.8,1,4.2,0.9,5-0.5c0.8-1.4-0.3-3.6-2.1-4.6c-1.8-1-5.7,0.2-5.7,0.2
				S15.1,15.5,16.9,16.5z"/>
			<line id="XMLID_208_" class="st4" x1="23.2" y1="9.3" x2="23.2" y2="18.9"/>
			<path id="XMLID_206_" class="st4" d="M17.2,27c0.4,4.2-1.2,8.1-2.8,10.8c-1.2,2.1-2.3,4.2-2.3,6.8c0,4.1,2.2,7.6,5.4,9.5
				c1.7,1,3.6,0.5,5.7,0.5c2.1,0,4,0.5,5.7-0.5c3.2-1.9,5.4-5.5,5.4-9.5c0-2.4-1-4.5-2.1-6.5c-1.5-2.7-3.1-6.5-2.8-10.7l0.3-2
				c0-3.5-2.9-6.4-6.4-6.4S17,21.8,17,25.3L17.2,27z"/>
			<path id="XMLID_205_" class="st4" d="M25.8,31.7c-0.3-1.6-0.4-3.2-0.3-4.7l0.3-2"/>
			<path id="XMLID_210_" class="st4" d="M30,42.9c-0.4-1.4-1-2.6-1.7-3.8c-0.5-1-1.1-2.3-1.6-3.8"/>
			<path id="XMLID_204_" class="st4" d="M30.4,45.6c0-0.5,0-1-0.1-1.5"/>
		</g>
	</g>
	<g id="XMLID_231_" class="st0">
		<path id="XMLID_213_" class="st2" d="M50.4,33.4c0,10.1-8.2,18.2-18.2,18.2C22.1,51.6,14,43.4,14,33.4H50.4z"/>
		<path id="XMLID_218_" class="st2" d="M16.4,33.4c-0.3-0.9-0.5-1.9-0.5-2.9c0-4.8,3.9-8.8,8.8-8.8c4.8,0,8.8,3.9,8.8,8.8
			c0,1-0.2,2-0.5,2.9"/>
		<path id="XMLID_224_" class="st2" d="M32.4,27.1c1.3-3.1,4.4-5.3,8-5.3c4.8,0,8.7,3.9,8.7,8.7c0,1-0.2,1.9-0.5,2.8"/>
		<path id="XMLID_219_" class="st2" d="M23.6,21.7c0-4.8,3.9-8.8,8.8-8.8c4.8,0,8.8,3.9,8.8,8.8"/>
		<line id="XMLID_220_" class="st2" x1="27.7" y1="16.7" x2="29.6" y2="16.7"/>
		<line id="XMLID_209_" class="st2" x1="31.2" y1="16.7" x2="33.1" y2="16.7"/>
		<line id="XMLID_221_" class="st2" x1="34.7" y1="16.7" x2="36.6" y2="16.7"/>
		<line id="XMLID_223_" class="st2" x1="29.4" y1="20.7" x2="31.1" y2="20.7"/>
		<line id="XMLID_222_" class="st2" x1="32.7" y1="20.7" x2="34.4" y2="20.7"/>
		<line id="XMLID_225_" class="st2" x1="14.5" y1="11.4" x2="23.6" y2="21.1"/>
		<polyline id="XMLID_227_" class="st2" points="18.7,24.6 21.7,26.8 24.7,24.6 27.8,26.8 30.8,24.6 		"/>
		<polyline id="XMLID_217_" class="st2" points="16.5,27.5 21.7,31.1 24.7,28.9 27.8,31.1 33,27.5 		"/>
		<line id="XMLID_230_" class="st2" x1="11.7" y1="52.6" x2="46.6" y2="52.6"/>
		<line id="XMLID_228_" class="st2" x1="48.3" y1="52.6" x2="52.3" y2="52.6"/>
	</g>
	<g id="XMLID_251_">
		<g id="XMLID_235_">
			<line id="XMLID_237_" class="st4" x1="27.4" y1="39.6" x2="27.4" y2="55.1"/>
			<line id="XMLID_236_" class="st4" x1="20.9" y1="55.1" x2="34" y2="55.1"/>
			<path id="XMLID_234_" class="st4" d="M41.4,22c0.2,0,0.3,0.2,0.2,0.3L28.1,39.6c-0.4,0.5-1,0.5-1.4,0L12.7,22.3
				c-0.1-0.1,0-0.3,0.1-0.3H41.4z"/>
			<line id="XMLID_229_" class="st4" x1="30.2" y1="33.9" x2="28.8" y2="32.3"/>
			<path id="XMLID_233_" class="st4" d="M27.9,27.9l-1.8-2c-0.5-0.5-1.6-0.8-1.6-0.8c0,0.6,0,1.3-0.8,2c-0.8,0.7-2.1,0.5-2.1,0.5
				c0,0.6,0.2,1.1,0.6,1.6l1.8,2c0.9,1.1,2.5,1.2,3.6,0.2C28.7,30.6,28.8,28.9,27.9,27.9z"/>
			<line id="XMLID_226_" class="st4" x1="22.4" y1="25.7" x2="8.9" y2="12.2"/>
		</g>
		<path id="XMLID_239_" class="st4" d="M32.9,20.1v-2.4c0-0.1,0.1-0.2,0.2-0.2h14.5c0.1,0,0.2,0.1,0.2,0.2v37.1
			c0,0.1-0.1,0.2-0.2,0.2H35.3"/>
		<line id="XMLID_240_" class="st4" x1="32.9" y1="37.1" x2="32.9" y2="53.4"/>
		<polyline id="XMLID_238_" class="st4" points="36.3,20.3 36.3,14 26.9,8.9 		"/>
		<line id="XMLID_244_" class="st4" x1="37.3" y1="30.3" x2="47.4" y2="30.3"/>
		<line id="XMLID_246_" class="st4" x1="37.5" y1="50.5" x2="37.5" y2="48.3"/>
		<line id="XMLID_249_" class="st4" x1="42.7" y1="46.3" x2="42.7" y2="44.2"/>
		<line id="XMLID_250_" class="st4" x1="42.7" y1="39.1" x2="42.7" y2="37"/>
		<line id="XMLID_241_" class="st4" x1="37.5" y1="43.2" x2="37.5" y2="41.1"/>
		<line id="XMLID_248_" class="st4" x1="37.5" y1="36" x2="37.5" y2="33.9"/>
		<path id="XMLID_327_" class="st4" d="M40.4,17.8c0-4.1,3.3-7.3,7.3-7.3s7.3,3.3,7.3,7.3s-3.3,7.3-7.3,7.3"/>
	</g>
	<g id="XMLID_260_" class="st0">
		<g id="XMLID_257_" class="st3">
			<polyline id="XMLID_259_" class="st4" points="41.1,31.3 40.5,28 37.3,27.5 36.7,24.2 33.4,23.6 			"/>
			<polyline id="XMLID_255_" class="st4" points="36.9,35.5 36.3,32.2 33.1,31.6 32.5,28.4 29.3,27.8 			"/>
			<polyline id="XMLID_256_" class="st4" points="32.7,39.6 32.2,36.4 28.9,35.8 28.3,32.6 25.1,32 			"/>
			<path id="XMLID_242_" class="st4" d="M19.3,42.5c1-4.2,4-11.8,10-17.8c8.1-8.1,19.7-9.9,20.9-10.2c0.1,0,0.1,0,0.1,0.1
				C50,15.8,48.1,27.3,40,35.4c-6.8,6.8-16.1,9.2-19.6,10c-0.7,0.1-1.1,0.2-1.3,0.3"/>
			<path id="XMLID_253_" class="st4" d="M46.8,25.6c-1.7-0.5-3.3-1.5-4.7-2.9c-1.4-1.4-2.4-3.1-2.9-4.8"/>
			<line id="XMLID_254_" class="st4" x1="42.8" y1="20" x2="44.3" y2="18.5"/>
			<path id="XMLID_245_" class="st4" d="M22.9,44.8l-2.3,8.4c-0.1,0.2-0.4,0.2-0.5,0l-2.1-5.8l-6.7-2.9c-0.2-0.1-0.2-0.4,0-0.5
				l8.5-2.3"/>
		</g>
		<path id="XMLID_264_" class="st2" d="M50.7,21.5c1.7,3.1,2.7,6.7,2.7,10.5c0,11.8-9.6,21.4-21.4,21.4c-2.6,0-5-0.4-7.3-1.3"/>
		<path id="XMLID_258_" class="st2" d="M13,41.8c-1.5-2.9-2.4-6.3-2.4-9.8c0-11.8,9.6-21.4,21.4-21.4c3.9,0,7.6,1.1,10.8,2.9"/>
		<path id="XMLID_266_" class="st2" d="M17.4,27.4c1.9-6.2,7.7-10.7,14.6-10.7"/>
		<path id="XMLID_261_" class="st2" d="M16.7,32c0-0.8,0.1-1.5,0.2-2.2"/>
	</g>
	<g id="XMLID_273_" class="st0">
		<path id="XMLID_285_" class="st2" d="M33.8,14c0,1.3-1,1.3-1,2.5c0,1.3,1,1.3,1,2.5c0,1.3-1,1.3-1,2.6c0,1.3,1,1.3,1,2.6"/>
		<path id="XMLID_284_" class="st2" d="M26.5,8.9c0,1.3-1,1.3-1,2.5c0,1.3,1,1.3,1,2.5c0,1.3-1,1.3-1,2.6c0,1.3,1,1.3,1,2.6"/>
		<g id="XMLID_270_" class="st3">
			<path id="XMLID_269_" class="st4" d="M45.9,32.5h2.5c2.9,0,5.3,2.4,5.3,5.3l0,0c0,2.9-2.4,5.3-5.3,5.3h-4.5"/>
			<line id="XMLID_271_" class="st4" x1="25.6" y1="29.8" x2="25.6" y2="35.4"/>
			<polygon id="XMLID_265_" class="st4" points="28.6,44.8 22.5,44.8 22.5,37.7 24.6,35.7 26.5,35.7 28.6,37.7 			"/>
			<path id="XMLID_272_" class="st4" d="M30.4,52.4h-1.5c-8.4,0-15.2-6.8-15.2-15.2v-9.3h31.9v9.3C45.6,45.6,38.8,52.4,30.4,52.4z"
				/>
			<path id="XMLID_262_" class="st4" d="M41.1,51.6h9.1v0.5l0,0C49,54,47,55.1,44.8,55.1H15.7c-2.2,0-4.2-1.1-5.4-2.9l0,0v-0.5h8"/>
		</g>
	</g>
	<g id="XMLID_292_" class="st0">
		<path id="XMLID_276_" class="st2" d="M10.8,25.4l38.5-11c0.1,0,0.2,0,0.3,0.1L53,25.3"/>
		<circle id="XMLID_277_" class="st2" cx="18.4" cy="41.8" r="2.8"/>
		<circle id="XMLID_278_" class="st2" cx="32" cy="35.1" r="3.5"/>
		<circle id="XMLID_280_" class="st2" cx="47.1" cy="39.3" r="2.6"/>
		<path id="XMLID_286_" class="st2" d="M53,25.3H11c-0.1,0-0.1,0.1-0.1,0.1v2.2c2.2,0,4,1.8,4,4c0,2.2-1.8,4-4,4v13.8
			c0,0.1,0.1,0.1,0.1,0.1h22c0-2.3,1.9-4.2,4.2-4.2c2.3,0,4.2,1.9,4.2,4.2H53c0.1,0,0.1-0.1,0.1-0.1v-24
			C53.2,25.3,53.1,25.3,53,25.3z"/>
		<line id="XMLID_281_" class="st2" x1="44.1" y1="15.6" x2="52.7" y2="24.2"/>
		<line id="XMLID_275_" class="st2" x1="39.9" y1="16.8" x2="48.5" y2="25.4"/>
		<line id="XMLID_282_" class="st2" x1="36" y1="18.3" x2="42.8" y2="25.2"/>
		<line id="XMLID_287_" class="st2" x1="31.5" y1="19.2" x2="37.7" y2="25.4"/>
		<line id="XMLID_288_" class="st2" x1="27.3" y1="20.4" x2="32" y2="25.1"/>
		<line id="XMLID_289_" class="st2" x1="23.3" y1="21.9" x2="26.8" y2="25.3"/>
	</g>
	<g id="XMLID_296_" class="st0">
		<path id="XMLID_304_" class="st2" d="M24.9,14.8c0,1.4-1.1,1.4-1.1,2.7c0,1.4,1.1,1.4,1.1,2.7c0,1.4-1.1,1.4-1.1,2.7
			c0,1.4,1.1,1.4,1.1,2.7"/>
		<path id="XMLID_303_" class="st2" d="M40.5,15.7c0,1.4-1.1,1.4-1.1,2.7c0,1.4,1.1,1.4,1.1,2.7c0,1.4-1.1,1.4-1.1,2.7
			c0,1.4,1.1,1.4,1.1,2.7"/>
		<path id="XMLID_302_" class="st2" d="M32.7,10.3c0,1.4-1.1,1.4-1.1,2.7c0,1.4,1.1,1.4,1.1,2.7c0,1.4-1.1,1.4-1.1,2.7
			c0,1.4,1.1,1.4,1.1,2.7"/>
		<g id="XMLID_326_" class="st3">
			<path id="XMLID_315_" class="st4" d="M55.1,37.3c0,4.6-10.8,9.1-23.4,9.1c-12.6,0-22.7-4.3-22.7-9.7s9.6-6.2,22.7-5.5
				c4.1,0.2,9.3,2.7,12.7,2.8C52.8,34.2,55.1,34.5,55.1,37.3z"/>
			<path id="XMLID_316_" class="st4" d="M9.1,37.8l-0.2,6.2c0,5.3,10.2,9.7,22.7,9.7c12.6,0,23.4-4.5,23.4-9.1v-7.4"/>
			<ellipse id="XMLID_319_" class="st4" cx="21.9" cy="37.6" rx="5.5" ry="1.6"/>
			<line id="XMLID_317_" class="st4" x1="10" y1="39.2" x2="17.9" y2="31.3"/>
			<line id="XMLID_314_" class="st4" x1="19.6" y1="36.1" x2="24.8" y2="30.9"/>
			<line id="XMLID_325_" class="st4" x1="17.2" y1="38.5" x2="13.1" y2="42.6"/>
			<line id="XMLID_318_" class="st4" x1="25.8" y1="36.3" x2="31.1" y2="31"/>
			<line id="XMLID_324_" class="st4" x1="23" y1="39.1" x2="17.6" y2="44.5"/>
			<line id="XMLID_320_" class="st4" x1="22.9" y1="45.6" x2="36.4" y2="32.2"/>
			<line id="XMLID_321_" class="st4" x1="28.6" y1="46.4" x2="41.5" y2="33.5"/>
			<line id="XMLID_322_" class="st4" x1="35.3" y1="46.2" x2="47.3" y2="34.1"/>
			<line id="XMLID_323_" class="st4" x1="42.8" y1="45.1" x2="53.1" y2="34.8"/>
		</g>
	</g>
	<g id="XMLID_301_" class="st0">
		<path id="XMLID_305_" class="st2" d="M29.2,16.1v-2.9c0-0.1-0.1-0.2-0.2-0.2H12.3c-0.1,0-0.2,0.1-0.2,0.2v2.9"/>
		<path id="XMLID_308_" class="st2" d="M25.1,51H12.6c-0.7,0-1.2-0.5-1.2-1.2L9,21.2h23.7L32,29l0,0.5"/>
		<path id="XMLID_298_" class="st2" d="M33.6,21.2H7.9c-0.1,0-0.2-0.1-0.2-0.2v-4.7c0-0.1,0.1-0.2,0.2-0.2h25.7
			c0.1,0,0.2,0.1,0.2,0.2V21C33.8,21.1,33.7,21.2,33.6,21.2z"/>
		<line id="XMLID_300_" class="st2" x1="9.6" y1="27.3" x2="31.9" y2="27.3"/>
		<line id="XMLID_299_" class="st2" x1="9.6" y1="35.4" x2="26.9" y2="35.4"/>
		<g id="XMLID_306_" class="st3">
			<g id="XMLID_310_">
				<path id="XMLID_465_" class="st4" d="M48.4,48.4h-17c-0.1,0-0.1,0-0.1-0.1l-3-17c0-0.1,0-0.1,0.1-0.1h23c0.1,0,0.1,0.1,0.1,0.1
					l-3,17C48.5,48.4,48.4,48.4,48.4,48.4z"/>
				<path id="XMLID_467_" class="st4" d="M50.7,46.6h2.9l0,0c0,2.4-1.9,4.3-4.3,4.3H30.5c-2.4,0-4.3-1.9-4.3-4.3l0,0H29"/>
				<path id="XMLID_468_" class="st4" d="M51.2,35.7h1.6c1.9,0,3.5,1.6,3.5,3.5l0,0c0,1.9-1.6,3.5-3.5,3.5h-3"/>
			</g>
			<path id="XMLID_309_" class="st4" d="M40.2,29.5v-2.4c0-0.7-0.6-1.3-1.3-1.3h-2.8c-0.8,0-1.4-0.6-1.4-1.4l0,0
				c0-0.8,0.6-1.4,1.4-1.4h9.9c0.6,0,1.2-0.5,1.2-1.2l0,0c0-0.6-0.5-1.2-1.2-1.2h-2.8c-2.3,0-4.2-1.9-4.2-4.2v-2.2"/>
			<path id="XMLID_307_" class="st4" d="M43.4,29.5l0-0.8c0-1,0.8-1.8,1.7-1.8h2.1"/>
		</g>
	</g>
	<g id="XMLID_351_" class="st0">
		<g id="XMLID_331_" class="st3">
			<path id="XMLID_349_" class="st4" d="M17.5,19.2"/>
			<path id="XMLID_339_" class="st4" d="M23.2,16.3l0.4-2.8c0-2-1.6-3.7-3.7-3.7c-2,0-3.7,1.6-3.7,3.7l0.4,2.8 M19.9,15.3
				c-0.9,0-1.6-0.7-1.6-1.6c0-0.9,0.7-1.6,1.6-1.6c0.9,0,1.6,0.7,1.6,1.6C21.5,14.6,20.8,15.3,19.9,15.3z"/>
			<path id="XMLID_335_" class="st4" d="M36.1,54.2H12.9c-0.1,0-0.2-0.1-0.2-0.2v-33l1.2-2.9c0-0.1,0.1-0.1,0.2-0.1h20.9
				c0.1,0,0.1,0,0.2,0.1l1.2,2.9v33C36.3,54.1,36.2,54.2,36.1,54.2z"/>
			<line id="XMLID_333_" class="st4" x1="12.7" y1="20.9" x2="36.3" y2="20.9"/>
			<circle id="XMLID_332_" class="st4" cx="24.5" cy="36" r="7.1"/>
		</g>
		<path id="XMLID_336_" class="st2" d="M30.5,16.1v-2.8c0-0.1,0.1-0.2,0.2-0.2h20.5c0.1,0,0.2,0.1,0.2,0.2V54c0,0.1-0.1,0.2-0.2,0.2
			H39"/>
		<line id="XMLID_337_" class="st2" x1="45.2" y1="25.6" x2="51.3" y2="25.6"/>
		<path id="XMLID_334_" class="st2" d="M44.9,28.9h-5.8c-0.1,0-0.2-0.1-0.2-0.2v-5.8c0-0.1,0.1-0.2,0.2-0.2h5.8
			c0.1,0,0.2,0.1,0.2,0.2v5.8C45.1,28.8,45,28.9,44.9,28.9z"/>
		<path id="XMLID_344_" class="st2" d="M47,29.5l2,2.1c0.1,0.1,0.1,0.2,0,0.3l-3.8,3.8c-0.1,0.1-0.2,0.1-0.3,0l-3.9-3.9l0.9-0.9"/>
		<line id="XMLID_346_" class="st2" x1="40.8" y1="38.7" x2="40.8" y2="40.6"/>
		<line id="XMLID_338_" class="st2" x1="40.8" y1="44.7" x2="40.8" y2="46.6"/>
		<line id="XMLID_347_" class="st2" x1="40.8" y1="49.6" x2="40.8" y2="51.5"/>
		<line id="XMLID_350_" class="st2" x1="45.8" y1="41.7" x2="45.8" y2="43.6"/>
		<line id="XMLID_348_" class="st2" x1="45.8" y1="46.7" x2="45.8" y2="48.6"/>
	</g>
	<g id="XMLID_345_" class="st0">
		<path id="XMLID_361_" class="st2" d="M28.7,51.4c-1.6,2.5-4.9,3.2-7.3,1.6l0,0c-2.5-1.6-3.2-4.9-1.6-7.3l3-4.7
			c1.6-2.5,4.9-3.2,7.3-1.6l0,0c2.5,1.6,3.2,4.9,1.6,7.3L28.7,51.4z"/>
		<path id="XMLID_360_" class="st2" d="M24.9,42.5c1.1-0.7,2.4-0.9,3.7-0.7"/>
		<path id="XMLID_358_" class="st2" d="M48.2,46.8c0.1,2.9-2.3,5.3-5.2,5.4l0,0c-2.9,0.1-5.3-2.3-5.4-5.2l-0.1-5.5
			c-0.1-2.9,2.3-5.3,5.2-5.4l0,0c2.9-0.1,5.3,2.3,5.4,5.2L48.2,46.8z"/>
		<path id="XMLID_357_" class="st2" d="M40.8,41.6c0.6-1.2,1.6-2.1,2.8-2.5"/>
		<path id="XMLID_355_" class="st2" d="M42.2,23.2c0,0-6.9-0.2-13.7-3.8c-6.8-3.6-10.8-9.2-10.8-9.2s6.9,0.2,13.7,3.8
			C38.2,17.6,42.2,23.2,42.2,23.2z"/>
		<path id="XMLID_353_" class="st2" d="M41.5,23.2c0,0-5.5,4.2-13,5.7c-7.5,1.5-14.2-0.3-14.2-0.3s5.5-4.2,13-5.7
			C34.8,21.4,41.5,23.2,41.5,23.2z"/>
		<path id="XMLID_341_" class="st2" d="M29.4,39c2.5-4.8,8.5-13.7,20.3-19.8"/>
		<path id="XMLID_354_" class="st2" d="M43.9,22.7c0,0-2,7.3-1.7,13.4"/>
	</g>
	<g id="XMLID_393_" class="st0">
		<line id="XMLID_384_" class="st2" x1="13.2" y1="33.4" x2="13.2" y2="50.3"/>
		<path id="XMLID_383_" class="st2" d="M13.2,49.7c0,2.6,4,5.2,9.1,5.2c5.1,0,9.3-2.1,9.3-4.7l0-16.8"/>
		<ellipse id="XMLID_382_" class="st2" cx="22.5" cy="33.4" rx="9.2" ry="4.7"/>
		<ellipse id="XMLID_381_" class="st2" cx="22.4" cy="33.2" rx="4.2" ry="2.4"/>
		<line id="XMLID_380_" class="st2" x1="14.5" y1="24" x2="41.5" y2="9.1"/>
		<line id="XMLID_378_" class="st2" x1="16.1" y1="26.6" x2="46" y2="13.4"/>
		<path id="XMLID_376_" class="st2" d="M18,37.5c3.1,3.1,0.8,6.9-0.8,9.9c-0.8,2.3,0,4.6,0.8,6.9"/>
		<path id="XMLID_373_" class="st2" d="M26.2,37.5c3.1,3.1,0.8,6.9-0.8,9.9c-0.8,2.3,0,4.6,0.8,6.9"/>
		<g id="XMLID_386_" class="st3">
			<path id="XMLID_385_" class="st4" d="M33.1,32.1l6.3-3.3c0.1,0,0.1,0,0.2,0l11,5.8c0.1,0.1,0.1,0.3,0,0.3l-11,5.8
				c-0.1,0-0.1,0-0.2,0l-5.8-3.1"/>
			<path id="XMLID_388_" class="st4" d="M44.2,34.9l-4.6,2.4c0,0-0.1,0-0.1,0l-4.6-2.4c-0.1,0-0.1-0.1,0-0.1l4.6-2.4
				c0,0,0.1,0,0.1,0l4.6,2.4C44.3,34.8,44.3,34.8,44.2,34.9z"/>
			<path id="XMLID_387_" class="st4" d="M33.4,51.7l6,3.2c0.1,0,0.1,0,0.2,0l10.9-5.7c0.1,0,0.1-0.1,0.1-0.2V35.1"/>
			<line id="XMLID_394_" class="st4" x1="39.5" y1="40.8" x2="39.5" y2="45"/>
			<line id="XMLID_359_" class="st4" x1="39.5" y1="47.6" x2="39.5" y2="45.9"/>
		</g>
	</g>
	<g id="XMLID_389_" class="st0">
		<g id="XMLID_364_" class="st3">
			<path id="XMLID_372_" class="st4" d="M19.1,29.7l0.9,9.7l1.1,1.7l1,12.8c0,0.6,0.5,1,1,1h11.4c0.6,0,1-0.5,1-1l0.9-12.6l1.1-1.9
				l0.9-9.7H19.1z"/>
			<line id="XMLID_370_" class="st4" x1="15.4" y1="29.7" x2="42" y2="29.7"/>
			<path id="XMLID_369_" class="st4" d="M18.6,29.7c0-5.7,4.6-10.3,10.3-10.3c5.7,0,10.3,4.6,10.3,10.3"/>
			<path id="XMLID_368_" class="st4" d="M32.2,23.5c1.4,1,2.5,2.4,3.2,4"/>
			<polyline id="XMLID_366_" class="st4" points="28.4,35.4 28.4,15.1 20.4,12.2 			"/>
			<line id="XMLID_365_" class="st4" x1="19.5" y1="35.4" x2="37.9" y2="35.4"/>
			<line id="XMLID_371_" class="st4" x1="20.4" y1="41" x2="27.3" y2="41"/>
		</g>
		<path id="XMLID_362_" class="st2" d="M33.6,18.5l-0.1-2h15.1l-1.1,38.3c0,0.1-0.1,0.2-0.2,0.2h-9.5"/>
		<line id="XMLID_390_" class="st2" x1="40.1" y1="25.5" x2="48.4" y2="25.5"/>
		<line id="XMLID_391_" class="st2" x1="41.1" y1="9.1" x2="41.1" y2="25.5"/>
		<g id="XMLID_397_" class="st3">
			<path id="XMLID_142_" class="st4" d="M23,47.2c2-1,4-2,7,1c1,0,2-1,3-1"/>
		</g>
	</g>
	<g id="XMLID_400_" class="st0">
		<path id="XMLID_484_" class="st2" d="M27.8,54.9H11.7c-0.1,0-0.2-0.1-0.2-0.2V19.6H28v35.2C28,54.8,27.9,54.9,27.8,54.9z"/>
		<line id="XMLID_498_" class="st2" x1="28" y1="19.6" x2="29.8" y2="13.9"/>
		<path id="XMLID_497_" class="st2" d="M29.8,13.9l1.8,5.7v33.2c0,0.1,0,0.1-0.1,0.2l-3.7,1.9"/>
		<line id="XMLID_487_" class="st2" x1="13.3" y1="13.5" x2="11.5" y2="18.9"/>
		<path id="XMLID_496_" class="st2" d="M29.8,13.5H13.3v-3.1c0-0.1,0.1-0.2,0.2-0.2h16.1c0.1,0,0.2,0.1,0.2,0.2V13.5z"/>
		<line id="XMLID_500_" class="st2" x1="16.1" y1="28.4" x2="23.4" y2="28.4"/>
		<line id="XMLID_499_" class="st2" x1="16.1" y1="32" x2="23.4" y2="32"/>
		<path id="XMLID_398_" class="st2" d="M11.1,41c4.2-2.1,8.4,1,12.5,1c1,0,3.1-1,4.2-1"/>
		<path id="XMLID_401_" class="st2" d="M34,43.3c2.9-0.1,5.9,1.6,8.8,1.6c0.9,0,2.8-0.9,3.8-0.9"/>
		<path id="XMLID_396_" class="st2" d="M33.7,33.4h14.3c0.1,0,0.3,0.1,0.3,0.3v5.3L46.8,41l-0.7,13.6c0,0.1-0.1,0.3-0.3,0.3H33.1"/>
		<g id="XMLID_406_" class="st3">
			<g id="XMLID_413_">
				<path id="XMLID_414_" class="st4" d="M52.8,14.1c0,0,0.9,6.4-2.4,9.8c-3.4,3.4-9.8,2.4-9.8,2.4s-0.9-6.4,2.4-9.8
					C46.4,13.2,52.8,14.1,52.8,14.1z"/>
			</g>
			<g id="XMLID_409_">
				<path id="XMLID_411_" class="st4" d="M38.3,24.1c-1.4-1.6-2.9-3.9-2.8-6.5c0-4.8,5.2-8.6,5.2-8.6s2.2,1.7,3.7,4.1"/>
			</g>
		</g>
	</g>
	<g id="XMLID_403_" class="st0">
		<path id="XMLID_450_" class="st2" d="M53.2,33.5c0,10.8-8.8,19.6-19.6,19.6V33.5H53.2z"/>
		<path id="XMLID_448_" class="st2" d="M31,51.1c-11.1,0-20.1-9-20.1-20.1c0-11.1,9-20.1,20.1-20.1s20.1,9,20.1,20.1H31V51.1z"/>
		<path id="XMLID_446_" class="st2" d="M47.6,31c0-9.2-7.5-16.6-16.6-16.6c-9.2,0-16.6,7.5-16.6,16.6c0,9.2,7.5,16.6,16.6,16.6V31
			H47.6z"/>
		<path id="XMLID_445_" class="st2" d="M50.2,33.5c0,8.1-7.4,16.2-16.6,16.2"/>
		<circle id="XMLID_444_" class="st2" cx="26" cy="41.6" r="1.7"/>
		<circle id="XMLID_443_" class="st2" cx="19.7" cy="33.9" r="2.2"/>
		<circle id="XMLID_442_" class="st2" cx="20.9" cy="25.2" r="1.7"/>
		<path id="XMLID_441_" class="st2" d="M26.4,21.4c-0.9-0.8-0.9-2.2-0.1-3.1c0.8-0.9,2.2-0.9,3.1-0.1c0.9,0.8,0.9,2.2,0.1,3.1
			C28.6,22.2,27.2,22.2,26.4,21.4z"/>
		<circle id="XMLID_440_" class="st2" cx="37.3" cy="21.4" r="1.7"/>
		<circle id="XMLID_439_" class="st2" cx="41.8" cy="26.9" r="2.2"/>
		<circle id="XMLID_438_" class="st2" cx="45" cy="37.6" r="1.7"/>
		<circle id="XMLID_437_" class="st2" cx="38.4" cy="44.1" r="2.2"/>
		<line id="XMLID_420_" class="st2" x1="22.8" y1="20.4" x2="23.9" y2="21.4"/>
		<line id="XMLID_419_" class="st2" x1="17.2" y1="28.4" x2="18.4" y2="29.4"/>
		<line id="XMLID_418_" class="st2" x1="23.9" y1="30.5" x2="25" y2="31.5"/>
		<line id="XMLID_402_" class="st2" x1="27.3" y1="35" x2="28.5" y2="35.9"/>
		<line id="XMLID_421_" class="st2" x1="34.2" y1="27.4" x2="35.3" y2="28.3"/>
		<line id="XMLID_417_" class="st2" x1="27.9" y1="26.4" x2="29" y2="27.4"/>
		<line id="XMLID_416_" class="st2" x1="21.3" y1="37.8" x2="22.5" y2="38.7"/>
		<line id="XMLID_415_" class="st2" x1="32.1" y1="21.5" x2="33.2" y2="22.5"/>
		<line id="XMLID_410_" class="st2" x1="41.8" y1="40.5" x2="43.4" y2="41.8"/>
		<line id="XMLID_407_" class="st2" x1="37.6" y1="37.1" x2="39.3" y2="38.6"/>
	</g>
	<g id="XMLID_435_" class="st0">
		<path id="XMLID_471_" class="st2" d="M23.3,10.4c0,1.6-1.3,1.6-1.3,3.1c0,1.6,1.3,1.6,1.3,3.1c0,1.6-1.3,1.6-1.3,3.2
			s1.3,1.6,1.3,3.2"/>
		<path id="XMLID_470_" class="st2" d="M41.3,10.4c0,1.6-1.3,1.6-1.3,3.1c0,1.6,1.3,1.6,1.3,3.1c0,1.6-1.3,1.6-1.3,3.2
			c0,1.6,1.3,1.6,1.3,3.2"/>
		<path id="XMLID_469_" class="st2" d="M32.3,10.4c0,1.6-1.3,1.6-1.3,3.1c0,1.6,1.3,1.6,1.3,3.1c0,1.6-1.3,1.6-1.3,3.2
			s1.3,1.6,1.3,3.2"/>
		<g id="XMLID_422_" class="st3">
			<path id="XMLID_431_" class="st4" d="M45.7,41.6c0.5-0.4,1.2-0.6,2-0.6c1.6,0,2.9,1,2.9,2.3"/>
			<path id="XMLID_432_" class="st4" d="M46.4,36.3c0.3,0.9,1,2.9,1.1,4c0,0.2,0.1,0.5,0.1,0.7"/>
			<path id="XMLID_449_" class="st4" d="M53.5,26.3c0.4-0.7,0.5-1.6,0-2.3c-0.3-0.6-0.9-1-1.5-1.1c-0.5-0.1-0.9-0.5-1-1
				c-0.1-0.6-0.5-1.1-1.1-1.5c-0.7-0.4-1.5-0.4-2.2,0c-1.3,0.8-1.5,2.5-0.5,3.5l-4.4,4.4c-0.8,0.8-0.8,2,0,2.8l0,0
				c0.8,0.8,2,0.8,2.8,0l4.4-4.4C51.2,27.6,52.7,27.5,53.5,26.3z"/>
			<path id="XMLID_433_" class="st4" d="M19.7,41l-4.1-0.1c-1.6-0.1-2.8-1.4-2.8-2.9v-5.6c0-0.7,0.9-0.9,1.3-0.4l2.7,3.9
				c0.4,0.5,1,0.9,1.7,0.9h3.3"/>
			<path id="XMLID_425_" class="st4" d="M17.1,36c4.5-4.2,11.3-7.8,17.3-7.8c0.5,0,3,0,3.5,0.1"/>
			<path id="XMLID_430_" class="st4" d="M12.5,43.3c0.1-1,0.6-2.1,1.2-3.2"/>
			<path id="XMLID_428_" class="st4" d="M47.4,29.6c1,2.6-0.1,6.2-2.8,9.1"/>
			<path id="XMLID_426_" class="st4" d="M33.1,33.6c0.5-1.3,1.4-2.5,2.4-3.6c2.8-2.9,6.4-4.1,9-3.2"/>
			<path id="XMLID_429_" class="st4" d="M55,50.6h-3l-4,3H16l-4-3H9c-0.1,0-0.2-0.1-0.2-0.2v-5.1c0-0.1,0.1-0.2,0.2-0.2h46
				c0.1,0,0.2,0.1,0.2,0.2v5.1C55.2,50.5,55.1,50.6,55,50.6z"/>
			<line id="XMLID_434_" class="st4" x1="12.1" y1="50.6" x2="25.8" y2="50.6"/>
		</g>
	</g>
</g>
<g id="Icon_text" class="st0">
	<g id="XMLID_14_" class="st3">
		<text id="XMLID_455_" transform="matrix(1 0 0 1 -69.4665 -78.2084)"><tspan x="0" y="0" class="st5 st6 st7">FOOD</tspan><tspan x="-5.4" y="7" class="st5 st6 st7">PLATTER</tspan></text>
	</g>
	<g id="XMLID_58_" class="st3">
		<text id="XMLID_456_" transform="matrix(1 0 0 1 -159.4147 -78.2085)" class="st5 st6 st7">CHEF</text>
	</g>
	<g id="XMLID_62_" class="st3">
		<text id="XMLID_457_" transform="matrix(1 0 0 1 17.2444 -78.2084)" class="st5 st6 st7">GRAPES</text>
	</g>
	<g id="XMLID_86_" class="st3">
		<text id="XMLID_458_" transform="matrix(1 0 0 1 113.3821 -78.2084)" class="st5 st6 st7">WINE</text>
	</g>
	<g id="XMLID_117_" class="st3">
		<text id="XMLID_459_" transform="matrix(1 0 0 1 194.0511 -78.2085)" class="st5 st6 st7">SPAGHETTI</text>
	</g>
	<g id="XMLID_128_" class="st3">
		<text id="XMLID_460_" transform="matrix(1 0 0 1 -168.8148 18.1666)" class="st5 st6 st7">BREKFAST</text>
	</g>
	<g id="XMLID_79_" class="st3">
		<text id="XMLID_461_" transform="matrix(1 0 0 1 -69.9673 18.1665)" class="st5 st6 st7">MENU</text>
	</g>
	<g id="XMLID_153_" class="st3">
		<text id="XMLID_462_" transform="matrix(1 0 0 1 22.7115 18.1668)" class="st5 st6 st7">BEER</text>
	</g>
	<g id="XMLID_172_" class="st3">
		<text id="XMLID_463_" transform="matrix(1 0 0 1 102.5545 18.1666)" class="st5 st6 st7">FAST FOOD</text>
	</g>
	<g id="XMLID_199_" class="st3">
		<text id="XMLID_464_" transform="matrix(1 0 0 1 184.55 18.1665)" class="st5 st6 st7">REFRESHMENTS</text>
	</g>
	<g id="XMLID_207_" class="st3">
		<text id="XMLID_466_" transform="matrix(1 0 0 1 -167.2119 114.4166)"><tspan x="0" y="0" class="st5 st6 st7">ORGANIC</tspan><tspan x="6.6" y="7" class="st5 st6 st7">FRUIT</tspan></text>
	</g>
	<g id="XMLID_232_" class="st3">
		<text id="XMLID_472_" transform="matrix(1 0 0 1 -79.1164 114.4163)" class="st5 st6 st7">ICE CREAM</text>
	</g>
	<g id="XMLID_252_" class="st3">
		<text id="XMLID_473_" transform="matrix(1 0 0 1 13.6289 114.4163)"><tspan x="0" y="0" class="st5 st6 st7">COCKTAIL</tspan><tspan x="10.8" y="7" class="st5 st6 st7">BAR</tspan></text>
	</g>
	<g id="XMLID_268_" class="st3">
		<text id="XMLID_474_" transform="matrix(1 0 0 1 104.5761 114.4163)" class="st5 st6 st7">SEA FOOD</text>
	</g>
	<g id="XMLID_274_" class="st3">
		<text id="XMLID_490_" transform="matrix(1 0 0 1 198.4731 114.4163)" class="st5 st6 st7">HOT TEA</text>
	</g>
	<g id="XMLID_294_" class="st3">
		<text id="XMLID_491_" transform="matrix(1 0 0 1 -164.0831 211.1666)" class="st5 st6 st7">CHEESE</text>
	</g>
	<g id="XMLID_297_" class="st3">
		<text id="XMLID_492_" transform="matrix(1 0 0 1 20.5029 211.1666)" class="st5 st6 st7">STEAK</text>
	</g>
	<g id="XMLID_311_" class="st3">
		<text id="XMLID_493_" transform="matrix(1 0 0 1 -73.1667 211.1666)"><tspan x="0" y="0" class="st5 st6 st7">COFFEE</tspan><tspan x="6.8" y="7" class="st5 st6 st7">BAR</tspan></text>
	</g>
	<g id="XMLID_352_" class="st3">
		<text id="XMLID_494_" transform="matrix(1 0 0 1 98.7212 211.1666)" class="st5 st6 st7">SODA WATER</text>
	</g>
	<g id="XMLID_356_" class="st3">
		<text id="XMLID_495_" transform="matrix(1 0 0 1 186.1597 211.1667)"><tspan x="0" y="0" class="st5 st6 st7">EXTRA VIRGINE</tspan><tspan x="21.9" y="7" class="st5 st6 st7">OIL</tspan></text>
	</g>
	<g id="XMLID_392_" class="st3">
		<text id="XMLID_501_" transform="matrix(1 0 0 1 -171.216 305.666)" class="st5 st6 st7">MILKSHAKE</text>
	</g>
	<g id="XMLID_395_" class="st3">
		<text id="XMLID_505_" transform="matrix(1 0 0 1 -69.7609 305.6657)"><tspan x="0" y="0" class="st5 st6 st7">SUSHI</tspan><tspan x="3.3" y="7" class="st5 st6 st7">BAR</tspan></text>
	</g>
	<g id="XMLID_399_" class="st3">
		<text id="XMLID_506_" transform="matrix(1 0 0 1 14.5909 305.6657)"><tspan x="0" y="0" class="st5 st6 st7">ORGANIC</tspan><tspan x="8.3" y="7" class="st5 st6 st7">MILK</tspan></text>
	</g>
	<g id="XMLID_424_" class="st3">
		<text id="XMLID_507_" transform="matrix(1 0 0 1 112.4443 305.6657)" class="st5 st6 st7">PIZZA</text>
	</g>
	<g id="XMLID_452_" class="st3">
		<text id="XMLID_508_" transform="matrix(1 0 0 1 196.7407 305.6653)"><tspan x="0" y="0" class="st5 st6 st7">ROASTED</tspan><tspan x="0.8" y="7" class="st5 st6 st7">CHICKEN</tspan></text>
	</g>
</g>
<g id="headline" class="st0">
	<circle id="XMLID_61_" class="st8" cx="-133.5" cy="-208.4" r="18.3"/>
	<circle id="XMLID_60_" class="st9" cx="-110.1" cy="-208.4" r="18.3"/>
	<circle id="XMLID_63_" class="st10" cx="-122.7" cy="-190.1" r="18.3"/>
	<g id="XMLID_1_" class="st3">
		<text id="XMLID_509_" transform="matrix(1 0 0 1 -183.7552 -194.0852)"><tspan x="0" y="0" style="fill:#231F20; font-family:'Oswald-Bold'; font-size:22.512px;">FLAT </tspan><tspan x="45.5" y="0" style="fill:#231F20; font-family:'Oswald-Light'; font-size:22.512px;">LINE </tspan><tspan x="83.9" y="0" style="fill:#231F20; font-family:'Oswald-Bold'; font-size:22.512px;">ICONS</tspan></text>
	</g>
	<g id="XMLID_2_" class="st3">
		
			<text id="XMLID_510_" transform="matrix(1 0 0 1 112.1481 -193.9056)" style="fill:#231F20; font-family:'Oswald-Light'; font-size:16.1735px;">RESTAURANT &amp; FOOD</text>
	</g>
</g>
</svg>
